<svg width="150" height="150" viewBox="0 0 150 150" fill="none" xmlns="http://www.w3.org/2000/svg">
<path d="M75 150C116.421 150 150 116.421 150 75C150 33.5786 116.421 0 75 0C33.5786 0 0 33.5786 0 75C0 116.421 33.5786 150 75 150Z" fill="#3C4363"/>
<mask id="mask0_2004_11923" style="mask-type:alpha" maskUnits="userSpaceOnUse" x="0" y="0" width="150" height="150">
<path d="M75 150C116.421 150 150 116.421 150 75C150 33.5786 116.421 0 75 0C33.5786 0 0 33.5786 0 75C0 116.421 33.5786 150 75 150Z" fill="#3C4363"/>
</mask>
<g mask="url(#mask0_2004_11923)">
<path d="M193.833 43H39.0626C34 43 27 43 27 53.5V153C27 155.761 31.1041 158 36.1667 158H193.833C198.896 158 203 155.761 203 153V48C203 45.2386 198.896 43 193.833 43Z" fill="#595F7B"/>
<path d="M190 67.5H124C120.962 67.5 118.5 69.9624 118.5 73V81C118.5 84.0376 120.962 86.5 124 86.5H190C193.038 86.5 195.5 84.0376 195.5 81V73C195.5 69.9624 193.038 67.5 190 67.5Z" fill="#595F7B" stroke="#6E7389"/>
</g>
<path d="M108 67.5H42C39.5147 67.5 37.5 69.5147 37.5 72V82C37.5 84.4853 39.5147 86.5 42 86.5H108C110.485 86.5 112.5 84.4853 112.5 82V72C112.5 69.5147 110.485 67.5 108 67.5Z" fill="#6E7389" stroke="#6E7389"/>
<path opacity="0.5" d="M76 95C85.3888 95 93 87.3888 93 78C93 68.6112 85.3888 61 76 61C66.6112 61 59 68.6112 59 78C59 87.3888 66.6112 95 76 95Z" fill="url(#paint0_radial_2004_11923)" fill-opacity="0.5"/>
<path d="M76 84C79.3137 84 82 81.3137 82 78C82 74.6863 79.3137 72 76 72C72.6863 72 70 74.6863 70 78C70 81.3137 72.6863 84 76 84Z" fill="#2BB3A7"/>
<path d="M86.604 89.4839C86.447 89.553 86.299 89.6399 86.1627 89.7425C86.0633 89.4587 85.9075 89.1979 85.7045 88.9758C85.4957 88.7473 85.2415 88.5647 84.9582 88.4399C84.6749 88.315 84.3687 88.2505 84.0591 88.2505C83.7495 88.2505 83.4433 88.315 83.16 88.4399C83.0307 88.4968 82.9076 88.5658 82.792 88.6456C82.7747 88.5669 82.7531 88.489 82.7273 88.4123C82.6283 88.119 82.4694 87.8494 82.2605 87.6208C82.0517 87.3923 81.7975 87.2097 81.5142 87.0849C81.2309 86.96 80.9247 86.8955 80.6151 86.8955C80.3055 86.8955 79.9993 86.96 79.716 87.0849C79.6034 87.1345 79.4954 87.1932 79.3931 87.2603V82.7799C79.3931 82.1544 79.1446 81.5545 78.7023 81.1122C78.26 80.6699 77.6601 80.4214 77.0346 80.4214C76.4091 80.4214 75.8092 80.6699 75.3669 81.1122C74.9246 81.5545 74.6761 82.1544 74.6761 82.7799V91.1921L73.6344 89.7704L73.6277 89.7612L73.6206 89.7524C73.4016 89.4803 73.1262 89.2589 72.8134 89.1034C72.5006 88.948 72.1578 88.8623 71.8086 88.8521L71.8086 88.852L71.7987 88.8519C71.3071 88.8474 70.8291 89.0132 70.4458 89.3212L70.438 89.3275L70.4303 89.3342C69.9731 89.7332 69.6921 90.2967 69.6485 90.902C69.6065 91.4859 69.7887 92.063 70.1566 92.5164L74.3431 100.79C74.7119 101.64 75.3066 102.372 76.0626 102.907C76.8229 103.445 77.717 103.763 78.6463 103.826L78.6485 103.826C79.3293 103.869 80.0717 103.87 80.8455 103.87L80.8495 103.871H80.9111C82.8707 103.871 84.6183 103.782 85.1141 103.756C85.1627 103.754 85.1993 103.752 85.2228 103.751C86.9838 103.747 88.1229 102.794 88.801 101.613C89.4677 100.453 89.7071 99.0537 89.725 98.0246L89.7251 98.0246V98.0159V91.7C89.749 91.3995 89.7116 91.0971 89.6153 90.8113C89.5163 90.5179 89.3574 90.2484 89.1485 90.0198C88.9397 89.7913 88.6855 89.6087 88.4022 89.4839C88.1189 89.359 87.8127 89.2945 87.5031 89.2945C87.1935 89.2945 86.8873 89.359 86.604 89.4839Z" fill="#2BB3A7" stroke="#595F7B"/>
<defs>
<radialGradient id="paint0_radial_2004_11923" cx="0" cy="0" r="1" gradientUnits="userSpaceOnUse" gradientTransform="translate(76 78) rotate(90) scale(17)">
<stop offset="0.735" stop-color="#2BB3A7" stop-opacity="0"/>
<stop offset="1" stop-color="#2BB3A7"/>
</radialGradient>
</defs>
</svg>
