<svg width="1182" height="644" viewBox="0 0 1182 644" fill="none" xmlns="http://www.w3.org/2000/svg">
<path d="M470 8V0C463.588 0 457.549 2.49027 453.035 7.03502C451.883 8.18677 450.887 9.40078 450.016 10.7393C449.144 9.43191 448.117 8.18677 446.996 7.03502C442.42 2.49027 436.412 0 430 0V8C438.156 8 444.879 14.1323 445.875 22.0078C441.486 18.1167 435.914 16 430 16V24C438.809 24 446 31.1907 446 40H454C454 31.1907 461.191 24 470 24V16C464.086 16 458.514 18.1167 454.125 22.0078C455.121 14.1323 461.844 8 470 8Z" fill="#4D5370"/>
<path d="M1166 412H1158V420H1166V412Z" fill="#4D5370"/>
<path d="M1150 412H1142V420H1150V412Z" fill="#4D5370"/>
<path d="M1166 396H1158V404H1166V396Z" fill="#4D5370"/>
<path d="M1150 396H1142V404H1150V396Z" fill="#4D5370"/>
<path d="M1182 396H1174V404H1182V396Z" fill="#4D5370"/>
<path d="M1182 412H1174V420H1182V412Z" fill="#4D5370"/>
<path d="M1166 380H1158V388H1166V380Z" fill="#4D5370"/>
<path d="M1150 380H1142V388H1150V380Z" fill="#4D5370"/>
<path d="M1182 380H1174V388H1182V380Z" fill="#4D5370"/>
<path d="M40 340H0V348H40V340Z" fill="#4D5370"/>
<path d="M40 356H0V364H40V356Z" fill="#4D5370"/>
<path d="M40 372H0V380H40V372Z" fill="#4D5370"/>
<path d="M1158 571.969H1150C1150 567.552 1146.42 563.975 1142 563.975V555.981C1150.81 555.981 1158 563.166 1158 571.969Z" fill="#4D5370"/>
<path d="M1154.45 542.513C1154.45 542.513 1154.67 542.607 1154.79 542.669C1158.03 539.683 1161.67 537.257 1165.72 535.453C1170.86 533.151 1176.33 532 1182 532V539.994C1177.46 539.994 1173.1 540.927 1168.99 542.762C1166.47 543.882 1164.13 545.313 1162.02 547.023C1162.92 547.77 1163.82 548.547 1164.63 549.387C1165.72 550.476 1166.68 551.596 1167.62 552.809C1171.73 549.729 1176.77 548.019 1182 548.019V556.012C1178.17 556.012 1174.5 557.381 1171.6 559.838C1173.19 563.695 1174 567.77 1174 572H1166C1166 565.593 1163.51 559.589 1158.96 555.048C1154.42 550.507 1148.41 548.019 1142 548.019V540.025C1146.33 540.025 1150.5 540.865 1154.45 542.544V542.513Z" fill="#4D5370"/>
<path d="M1182 563.975V571.969H1174C1174 567.552 1177.58 563.975 1182 563.975Z" fill="#4D5370"/>
</svg>
