<svg width="1179" height="704" viewBox="0 0 1179 704" fill="none" xmlns="http://www.w3.org/2000/svg">
<path d="M1163 443H1155V451H1163V443Z" fill="#4D5370"/>
<path d="M1147 443H1139V451H1147V443Z" fill="#4D5370"/>
<path d="M1163 427H1155V435H1163V427Z" fill="#4D5370"/>
<path d="M1147 427H1139V435H1147V427Z" fill="#4D5370"/>
<path d="M1179 427H1171V435H1179V427Z" fill="#4D5370"/>
<path d="M1179 443H1171V451H1179V443Z" fill="#4D5370"/>
<path d="M1163 411H1155V419H1163V411Z" fill="#4D5370"/>
<path d="M1147 411H1139V419H1147V411Z" fill="#4D5370"/>
<path d="M1179 411H1171V419H1179V411Z" fill="#4D5370"/>
<path d="M1139 8V0C1132.59 0 1126.55 2.49027 1122.04 7.03502C1120.88 8.18677 1119.89 9.40078 1119.02 10.7393C1118.14 9.43191 1117.12 8.18677 1116 7.03502C1111.42 2.49027 1105.41 0 1099 0V8C1107.16 8 1113.88 14.1323 1114.88 22.0078C1110.49 18.1167 1104.91 16 1099 16V24C1107.81 24 1115 31.1907 1115 40H1123C1123 31.1907 1130.19 24 1139 24V16C1133.09 16 1127.51 18.1167 1123.12 22.0078C1124.12 14.1323 1130.84 8 1139 8Z" fill="#4D5370"/>
<path d="M1179 40H1139V48H1179V40Z" fill="#4D5370"/>
<path d="M1179 56H1139V64H1179V56Z" fill="#4D5370"/>
<path d="M1179 72H1139V80H1179V72Z" fill="#4D5370"/>
<path d="M212 39.9689H204C204 35.5521 200.42 31.9751 196 31.9751V23.9813C204.809 23.9813 212 31.1664 212 39.9689Z" fill="#4D5370"/>
<path d="M208.451 10.5132C208.451 10.5132 208.669 10.6065 208.794 10.6687C212.031 7.68274 215.673 5.25661 219.72 3.45257C224.856 1.15086 230.335 0 236 0V7.99378C231.455 7.99378 227.097 8.92691 222.988 10.7621C220.467 11.8818 218.132 13.3126 216.016 15.0233C216.918 15.7698 217.821 16.5474 218.63 17.3872C219.72 18.4759 220.685 19.5956 221.619 20.8087C225.728 17.7294 230.77 16.0187 236 16.0187V24.0124C232.171 24.0124 228.498 25.381 225.603 27.8383C227.191 31.6952 228 35.7698 228 40H220C220 33.5925 217.51 27.5894 212.965 23.0482C208.42 18.507 202.412 16.0187 196 16.0187V8.02488C200.327 8.02488 204.498 8.8647 208.451 10.5443V10.5132Z" fill="#4D5370"/>
<path d="M236 31.9752V39.9689H228C228 35.5521 231.58 31.9752 236 31.9752Z" fill="#4D5370"/>
</svg>
