<svg width="582" height="704" viewBox="0 0 582 704" fill="none" xmlns="http://www.w3.org/2000/svg">
<path d="M40 343V335C33.5876 335 27.5486 337.49 23.035 342.035C21.8833 343.187 20.8872 344.401 20.0156 345.739C19.144 344.432 18.1167 343.187 16.9961 342.035C12.4202 337.49 6.41245 335 0 335V343C8.15564 343 14.8794 349.132 15.8755 357.008C11.4864 353.117 5.9144 351 0 351V359C8.80934 359 16 366.191 16 375H24C24 366.191 31.1907 359 40 359V351C34.0856 351 28.5136 353.117 24.1245 357.008C25.1206 349.132 31.8444 343 40 343Z" fill="#4D5370"/>
<path d="M566 48H558V56H566V48Z" fill="#4D5370"/>
<path d="M550 48H542V56H550V48Z" fill="#4D5370"/>
<path d="M566 32H558V40H566V32Z" fill="#4D5370"/>
<path d="M550 32H542V40H550V32Z" fill="#4D5370"/>
<path d="M582 32H574V40H582V32Z" fill="#4D5370"/>
<path d="M582 48H574V56H582V48Z" fill="#4D5370"/>
<path d="M566 16H558V24H566V16Z" fill="#4D5370"/>
<path d="M550 16H542V24H550V16Z" fill="#4D5370"/>
<path d="M582 16H574V24H582V16Z" fill="#4D5370"/>
<path d="M40 528H0V536H40V528Z" fill="#4D5370"/>
<path d="M40 544H0V552H40V544Z" fill="#4D5370"/>
<path d="M40 560H0V568H40V560Z" fill="#4D5370"/>
<path d="M558 687.969H550C550 683.552 546.42 679.975 542 679.975V671.981C550.809 671.981 558 679.166 558 687.969Z" fill="#4D5370"/>
<path d="M554.451 658.513C554.451 658.513 554.669 658.607 554.794 658.669C558.031 655.683 561.673 653.257 565.72 651.453C570.856 649.151 576.335 648 582 648V655.994C577.455 655.994 573.097 656.927 568.988 658.762C566.467 659.882 564.132 661.313 562.016 663.023C562.918 663.77 563.821 664.547 564.63 665.387C565.72 666.476 566.685 667.596 567.619 668.809C571.728 665.729 576.77 664.019 582 664.019V672.012C578.171 672.012 574.498 673.381 571.603 675.838C573.191 679.695 574 683.77 574 688H566C566 681.593 563.51 675.589 558.965 671.048C554.42 666.507 548.412 664.019 542 664.019V656.025C546.327 656.025 550.498 656.865 554.451 658.544V658.513Z" fill="#4D5370"/>
<path d="M582 679.975V687.969H574C574 683.552 577.58 679.975 582 679.975Z" fill="#4D5370"/>
</svg>
