<svg width="59" height="28" viewBox="0 0 59 28" fill="none" xmlns="http://www.w3.org/2000/svg">
  <g clip-path="url(#clip0_1967_482)">
    <path
      d="M44.4098 17.301C43.1601 17.301 41.7855 17.301 40.5358 17.301C29.5385 17.1777 18.4163 16.931 7.41912 16.8076C6.16943 16.8076 5.04472 16.8076 3.79503 16.6843C2.17044 16.5609 0.170946 16.1909 0.545851 14.094C0.67082 13.2305 2.54535 12.2437 3.67006 12.1204C12.9177 11.627 22.0404 11.2569 31.2881 10.8869C33.4126 10.7635 35.537 10.8869 37.7865 9.77671C35.2871 8.29652 32.6628 7.06302 30.2884 5.45948C29.1636 4.71938 27.914 2.86913 28.1639 1.75899C28.6638 -0.461309 31.1631 -0.214609 32.6628 0.525488C40.1609 3.73258 47.7839 6.93967 55.0321 10.7635C59.656 13.2305 59.656 16.931 55.0321 19.398C48.9087 22.7284 42.2853 25.1954 35.9119 27.9091C35.1621 28.2792 33.9124 27.4157 32.9127 27.169C33.2876 26.1822 33.2876 24.702 34.0374 24.2086C35.537 22.9751 37.5365 22.235 39.2861 21.2482C41.1606 20.2614 43.0351 19.2746 44.7847 18.2878C44.5348 18.0411 44.4098 17.6711 44.4098 17.301Z"
      fill="#3C4363" />
  </g>
  <defs>
    <clipPath id="clip0_1967_482">
      <rect width="28" height="58" fill="white" transform="translate(0.5 28) rotate(-90)" />
    </clipPath>
  </defs>
</svg>