<svg width="24" height="24" viewBox="0 0 24 24" fill="none" xmlns="http://www.w3.org/2000/svg">
<rect width="24" height="24" fill="#F5F5F5"/>
<g id="Scientific Evidence">
<path d="M-10955 -3841C-10955 -3842.1 -10954.1 -3843 -10953 -3843H1406C1407.1 -3843 1408 -3842.1 1408 -3841V522C1408 523.104 1407.1 524 1406 524H-10953C-10954.1 524 -10955 523.105 -10955 522V-3841Z" fill="#F5F5F5"/>
<g id="Meta-analysis scroll" clip-path="url(#clip0_165_38016)">
<g id="Frame 230532">
<rect width="868" height="1303" transform="translate(-746 -514)" fill="white"/>
<g id="Group 8668">
<g id="Frame 230531">
<g id="Frame 230538">
<g id="Frame 230537">
<g id="Table">
<g id="Row">
<g clip-path="url(#clip1_165_38016)">
<g id="Frame 6">
<rect width="120" height="72" transform="translate(-48 -24)" fill="#F7F7F9"/>
<g id="Frame">
<path id="Vector" d="M12 22C17.5228 22 22 17.5228 22 12C22 6.47715 17.5228 2 12 2C6.47715 2 2 6.47715 2 12C2 17.5228 6.47715 22 12 22Z" fill="#CFD1DB" stroke="#CFD1DB" stroke-width="2" stroke-linecap="round" stroke-linejoin="round"/>
<path id="Vector_2" d="M7.75736 12H16.2426" stroke="white" stroke-width="2" stroke-linecap="round" stroke-linejoin="round"/>
</g>
</g>
</g>
</g>
</g>
<path d="M72 -94.5H71V-93.5H72V-94.5ZM69 -94.5H67V-93.5H69V-94.5ZM65 -94.5H63V-93.5H65V-94.5ZM61 -94.5H59V-93.5H61V-94.5ZM57 -94.5H55V-93.5H57V-94.5ZM53 -94.5H51V-93.5H53V-94.5ZM49 -94.5H47V-93.5H49V-94.5ZM45 -94.5H43V-93.5H45V-94.5ZM41 -94.5H39V-93.5H41V-94.5ZM37 -94.5H35V-93.5H37V-94.5ZM33 -94.5H31V-93.5H33V-94.5ZM29 -94.5H27V-93.5H29V-94.5ZM25 -94.5H23V-93.5H25V-94.5ZM21 -94.5H19V-93.5H21V-94.5ZM17 -94.5H15V-93.5H17V-94.5ZM13 -94.5H11V-93.5H13V-94.5ZM9 -94.5H7V-93.5H9V-94.5ZM5 -94.5H3V-93.5H5V-94.5ZM1 -94.5H-1V-93.5H1V-94.5ZM-3 -94.5H-5V-93.5H-3V-94.5ZM-7 -94.5H-9V-93.5H-7V-94.5ZM-11 -94.5H-13V-93.5H-11V-94.5ZM-15 -94.5H-17V-93.5H-15V-94.5ZM-19 -94.5H-21V-93.5H-19V-94.5ZM-23 -94.5H-25V-93.5H-23V-94.5ZM-27 -94.5H-29V-93.5H-27V-94.5ZM-31 -94.5H-33V-93.5H-31V-94.5ZM-35 -94.5H-37V-93.5H-35V-94.5ZM-39 -94.5H-41V-93.5H-39V-94.5ZM-43 -94.5H-45V-93.5H-43V-94.5ZM-47 -94.5H-49V-93.5H-47V-94.5ZM-51 -94.5H-53V-93.5H-51V-94.5ZM-55 -94.5H-57V-93.5H-55V-94.5ZM-59 -94.5H-61V-93.5H-59V-94.5ZM-63 -94.5H-65V-93.5H-63V-94.5ZM-67 -94.5H-69V-93.5H-67V-94.5ZM-71 -94.5H-73V-93.5H-71V-94.5ZM-75 -94.5H-77V-93.5H-75V-94.5ZM-79 -94.5H-81V-93.5H-79V-94.5ZM-83 -94.5H-85V-93.5H-83V-94.5ZM-87 -94.5H-89V-93.5H-87V-94.5ZM-91 -94.5H-93V-93.5H-91V-94.5ZM-95 -94.5H-97V-93.5H-95V-94.5ZM-99 -94.5H-101V-93.5H-99V-94.5ZM-103 -94.5H-105V-93.5H-103V-94.5ZM-107 -94.5H-109V-93.5H-107V-94.5ZM-111 -94.5H-113V-93.5H-111V-94.5ZM-115 -94.5H-117V-93.5H-115V-94.5ZM-119 -94.5H-121V-93.5H-119V-94.5ZM-123 -94.5H-125V-93.5H-123V-94.5ZM-127 -94.5H-129V-93.5H-127V-94.5ZM-131 -94.5H-133V-93.5H-131V-94.5ZM-135 -94.5H-137V-93.5H-135V-94.5ZM-139 -94.5H-141V-93.5H-139V-94.5ZM-143 -94.5H-145V-93.5H-143V-94.5ZM-147 -94.5H-149V-93.5H-147V-94.5ZM-151 -94.5H-153V-93.5H-151V-94.5ZM-155 -94.5H-157V-93.5H-155V-94.5ZM-159 -94.5H-161V-93.5H-159V-94.5ZM-163 -94.5H-165V-93.5H-163V-94.5ZM-167 -94.5H-169V-93.5H-167V-94.5ZM-171 -94.5H-173V-93.5H-171V-94.5ZM-175 -94.5H-177V-93.5H-175V-94.5ZM-179 -94.5H-181V-93.5H-179V-94.5ZM-183 -94.5H-185V-93.5H-183V-94.5ZM-187 -94.5H-189V-93.5H-187V-94.5ZM-191 -94.5H-193V-93.5H-191V-94.5ZM-195 -94.5H-197V-93.5H-195V-94.5ZM-199 -94.5H-201V-93.5H-199V-94.5ZM-203 -94.5H-205V-93.5H-203V-94.5ZM-207 -94.5H-209V-93.5H-207V-94.5ZM-211 -94.5H-213V-93.5H-211V-94.5ZM-215 -94.5H-217V-93.5H-215V-94.5ZM-219 -94.5H-221V-93.5H-219V-94.5ZM-223 -94.5H-225V-93.5H-223V-94.5ZM-227 -94.5H-229V-93.5H-227V-94.5ZM-231 -94.5H-233V-93.5H-231V-94.5ZM-235 -94.5H-237V-93.5H-235V-94.5ZM-239 -94.5H-241V-93.5H-239V-94.5ZM-243 -94.5H-245V-93.5H-243V-94.5ZM-247 -94.5H-249V-93.5H-247V-94.5ZM-251 -94.5H-253V-93.5H-251V-94.5ZM-255 -94.5H-257V-93.5H-255V-94.5ZM-259 -94.5H-261V-93.5H-259V-94.5ZM-263 -94.5H-265V-93.5H-263V-94.5ZM-267 -94.5H-269V-93.5H-267V-94.5ZM-271 -94.5H-273V-93.5H-271V-94.5ZM-275 -94.5H-277V-93.5H-275V-94.5ZM-279 -94.5H-281V-93.5H-279V-94.5ZM-283 -94.5H-285V-93.5H-283V-94.5ZM-287 -94.5H-289V-93.5H-287V-94.5ZM-291 -94.5H-293V-93.5H-291V-94.5ZM-295 -94.5H-297V-93.5H-295V-94.5ZM-299 -94.5H-301V-93.5H-299V-94.5ZM-303 -94.5H-305V-93.5H-303V-94.5ZM-307 -94.5H-309V-93.5H-307V-94.5ZM-311 -94.5H-313V-93.5H-311V-94.5ZM-315 -94.5H-317V-93.5H-315V-94.5ZM-319 -94.5H-321V-93.5H-319V-94.5ZM-323 -94.5H-325V-93.5H-323V-94.5ZM-327 -94.5H-329V-93.5H-327V-94.5ZM-331 -94.5H-333V-93.5H-331V-94.5ZM-335 -94.5H-337V-93.5H-335V-94.5ZM-339 -94.5H-341V-93.5H-339V-94.5ZM-343 -94.5H-345V-93.5H-343V-94.5ZM-347 -94.5H-349V-93.5H-347V-94.5ZM-351 -94.5H-353V-93.5H-351V-94.5ZM-355 -94.5H-357V-93.5H-355V-94.5ZM-359 -94.5H-361V-93.5H-359V-94.5ZM-363 -94.5H-365V-93.5H-363V-94.5ZM-367 -94.5H-369V-93.5H-367V-94.5ZM-371 -94.5H-373V-93.5H-371V-94.5ZM-375 -94.5H-377V-93.5H-375V-94.5ZM-379 -94.5H-381V-93.5H-379V-94.5ZM-383 -94.5H-385V-93.5H-383V-94.5ZM-387 -94.5H-389V-93.5H-387V-94.5ZM-391 -94.5H-393V-93.5H-391V-94.5ZM-395 -94.5H-397V-93.5H-395V-94.5ZM-399 -94.5H-401V-93.5H-399V-94.5ZM-403 -94.5H-405V-93.5H-403V-94.5ZM-407 -94.5H-409V-93.5H-407V-94.5ZM-411 -94.5H-413V-93.5H-411V-94.5ZM-415 -94.5H-417V-93.5H-415V-94.5ZM-419 -94.5H-421V-93.5H-419V-94.5ZM-423 -94.5H-425V-93.5H-423V-94.5ZM-427 -94.5H-429V-93.5H-427V-94.5ZM-431 -94.5H-433V-93.5H-431V-94.5ZM-435 -94.5H-437V-93.5H-435V-94.5ZM-439 -94.5H-441V-93.5H-439V-94.5ZM-443 -94.5H-445V-93.5H-443V-94.5ZM-447 -94.5H-449V-93.5H-447V-94.5ZM-451 -94.5H-453V-93.5H-451V-94.5ZM-455 -94.5H-457V-93.5H-455V-94.5ZM-459 -94.5H-461V-93.5H-459V-94.5ZM-463 -94.5H-465V-93.5H-463V-94.5ZM-467 -94.5H-469V-93.5H-467V-94.5ZM-471 -94.5H-473V-93.5H-471V-94.5ZM-475 -94.5H-477V-93.5H-475V-94.5ZM-479 -94.5H-481V-93.5H-479V-94.5ZM-483 -94.5H-485V-93.5H-483V-94.5ZM-487 -94.5H-489V-93.5H-487V-94.5ZM-491 -94.5H-493V-93.5H-491V-94.5ZM-495 -94.5H-497V-93.5H-495V-94.5ZM-499 -94.5H-501V-93.5H-499V-94.5ZM-503 -94.5H-505V-93.5H-503V-94.5ZM-507 -94.5H-509V-93.5H-507V-94.5ZM-511 -94.5H-513V-93.5H-511V-94.5ZM-515 -94.5H-517V-93.5H-515V-94.5ZM-519 -94.5H-521V-93.5H-519V-94.5ZM-523 -94.5H-525V-93.5H-523V-94.5ZM-527 -94.5H-529V-93.5H-527V-94.5ZM-531 -94.5H-533V-93.5H-531V-94.5ZM-535 -94.5H-537V-93.5H-535V-94.5ZM-539 -94.5H-541V-93.5H-539V-94.5ZM-543 -94.5H-545V-93.5H-543V-94.5ZM-547 -94.5H-549V-93.5H-547V-94.5ZM-551 -94.5H-553V-93.5H-551V-94.5ZM-555 -94.5H-557V-93.5H-555V-94.5ZM-559 -94.5H-561V-93.5H-559V-94.5ZM-563 -94.5H-565V-93.5H-563V-94.5ZM-567 -94.5H-569V-93.5H-567V-94.5ZM-571 -94.5H-573V-93.5H-571V-94.5ZM-575 -94.5H-577V-93.5H-575V-94.5ZM-579 -94.5H-581V-93.5H-579V-94.5ZM-583 -94.5H-585V-93.5H-583V-94.5ZM-587 -94.5H-589V-93.5H-587V-94.5ZM-591 -94.5H-593V-93.5H-591V-94.5ZM-595 -94.5H-597V-93.5H-595V-94.5ZM-599 -94.5H-601V-93.5H-599V-94.5ZM-603 -94.5H-605V-93.5H-603V-94.5ZM-607 -94.5H-609V-93.5H-607V-94.5ZM-611 -94.5H-613V-93.5H-611V-94.5ZM-615 -94.5H-617V-93.5H-615V-94.5ZM-619 -94.5H-621V-93.5H-619V-94.5ZM-623 -94.5H-625V-93.5H-623V-94.5ZM-627 -94.5H-629V-93.5H-627V-94.5ZM-631 -94.5H-633V-93.5H-631V-94.5ZM-635 -94.5H-637V-93.5H-635V-94.5ZM-639 -94.5H-641V-93.5H-639V-94.5ZM-643 -94.5H-645V-93.5H-643V-94.5ZM-647 -94.5H-649V-93.5H-647V-94.5ZM-651 -94.5H-653V-93.5H-651V-94.5ZM-655 -94.5H-657V-93.5H-655V-94.5ZM-659 -94.5H-661V-93.5H-659V-94.5ZM-663 -94.5H-665V-93.5H-663V-94.5ZM-667 -94.5H-669V-93.5H-667V-94.5ZM-671 -94.5H-673V-93.5H-671V-94.5ZM-675 -94.5H-677V-93.5H-675V-94.5ZM-679 -94.5H-681V-93.5H-679V-94.5ZM-683 -94.5H-685V-93.5H-683V-94.5ZM-687 -94.5H-689V-93.5H-687V-94.5ZM-691 -94.5H-693V-93.5H-691V-94.5ZM-695 -94.5H-696V-93.5H-695V-94.5ZM72 -95H71V-93H72V-95ZM69 -95H67V-93H69V-95ZM65 -95H63V-93H65V-95ZM61 -95H59V-93H61V-95ZM57 -95H55V-93H57V-95ZM53 -95H51V-93H53V-95ZM49 -95H47V-93H49V-95ZM45 -95H43V-93H45V-95ZM41 -95H39V-93H41V-95ZM37 -95H35V-93H37V-95ZM33 -95H31V-93H33V-95ZM29 -95H27V-93H29V-95ZM25 -95H23V-93H25V-95ZM21 -95H19V-93H21V-95ZM17 -95H15V-93H17V-95ZM13 -95H11V-93H13V-95ZM9 -95H7V-93H9V-95ZM5 -95H3V-93H5V-95ZM1 -95H-1V-93H1V-95ZM-3 -95H-5V-93H-3V-95ZM-7 -95H-9V-93H-7V-95ZM-11 -95H-13V-93H-11V-95ZM-15 -95H-17V-93H-15V-95ZM-19 -95H-21V-93H-19V-95ZM-23 -95H-25V-93H-23V-95ZM-27 -95H-29V-93H-27V-95ZM-31 -95H-33V-93H-31V-95ZM-35 -95H-37V-93H-35V-95ZM-39 -95H-41V-93H-39V-95ZM-43 -95H-45V-93H-43V-95ZM-47 -95H-49V-93H-47V-95ZM-51 -95H-53V-93H-51V-95ZM-55 -95H-57V-93H-55V-95ZM-59 -95H-61V-93H-59V-95ZM-63 -95H-65V-93H-63V-95ZM-67 -95H-69V-93H-67V-95ZM-71 -95H-73V-93H-71V-95ZM-75 -95H-77V-93H-75V-95ZM-79 -95H-81V-93H-79V-95ZM-83 -95H-85V-93H-83V-95ZM-87 -95H-89V-93H-87V-95ZM-91 -95H-93V-93H-91V-95ZM-95 -95H-97V-93H-95V-95ZM-99 -95H-101V-93H-99V-95ZM-103 -95H-105V-93H-103V-95ZM-107 -95H-109V-93H-107V-95ZM-111 -95H-113V-93H-111V-95ZM-115 -95H-117V-93H-115V-95ZM-119 -95H-121V-93H-119V-95ZM-123 -95H-125V-93H-123V-95ZM-127 -95H-129V-93H-127V-95ZM-131 -95H-133V-93H-131V-95ZM-135 -95H-137V-93H-135V-95ZM-139 -95H-141V-93H-139V-95ZM-143 -95H-145V-93H-143V-95ZM-147 -95H-149V-93H-147V-95ZM-151 -95H-153V-93H-151V-95ZM-155 -95H-157V-93H-155V-95ZM-159 -95H-161V-93H-159V-95ZM-163 -95H-165V-93H-163V-95ZM-167 -95H-169V-93H-167V-95ZM-171 -95H-173V-93H-171V-95ZM-175 -95H-177V-93H-175V-95ZM-179 -95H-181V-93H-179V-95ZM-183 -95H-185V-93H-183V-95ZM-187 -95H-189V-93H-187V-95ZM-191 -95H-193V-93H-191V-95ZM-195 -95H-197V-93H-195V-95ZM-199 -95H-201V-93H-199V-95ZM-203 -95H-205V-93H-203V-95ZM-207 -95H-209V-93H-207V-95ZM-211 -95H-213V-93H-211V-95ZM-215 -95H-217V-93H-215V-95ZM-219 -95H-221V-93H-219V-95ZM-223 -95H-225V-93H-223V-95ZM-227 -95H-229V-93H-227V-95ZM-231 -95H-233V-93H-231V-95ZM-235 -95H-237V-93H-235V-95ZM-239 -95H-241V-93H-239V-95ZM-243 -95H-245V-93H-243V-95ZM-247 -95H-249V-93H-247V-95ZM-251 -95H-253V-93H-251V-95ZM-255 -95H-257V-93H-255V-95ZM-259 -95H-261V-93H-259V-95ZM-263 -95H-265V-93H-263V-95ZM-267 -95H-269V-93H-267V-95ZM-271 -95H-273V-93H-271V-95ZM-275 -95H-277V-93H-275V-95ZM-279 -95H-281V-93H-279V-95ZM-283 -95H-285V-93H-283V-95ZM-287 -95H-289V-93H-287V-95ZM-291 -95H-293V-93H-291V-95ZM-295 -95H-297V-93H-295V-95ZM-299 -95H-301V-93H-299V-95ZM-303 -95H-305V-93H-303V-95ZM-307 -95H-309V-93H-307V-95ZM-311 -95H-313V-93H-311V-95ZM-315 -95H-317V-93H-315V-95ZM-319 -95H-321V-93H-319V-95ZM-323 -95H-325V-93H-323V-95ZM-327 -95H-329V-93H-327V-95ZM-331 -95H-333V-93H-331V-95ZM-335 -95H-337V-93H-335V-95ZM-339 -95H-341V-93H-339V-95ZM-343 -95H-345V-93H-343V-95ZM-347 -95H-349V-93H-347V-95ZM-351 -95H-353V-93H-351V-95ZM-355 -95H-357V-93H-355V-95ZM-359 -95H-361V-93H-359V-95ZM-363 -95H-365V-93H-363V-95ZM-367 -95H-369V-93H-367V-95ZM-371 -95H-373V-93H-371V-95ZM-375 -95H-377V-93H-375V-95ZM-379 -95H-381V-93H-379V-95ZM-383 -95H-385V-93H-383V-95ZM-387 -95H-389V-93H-387V-95ZM-391 -95H-393V-93H-391V-95ZM-395 -95H-397V-93H-395V-95ZM-399 -95H-401V-93H-399V-95ZM-403 -95H-405V-93H-403V-95ZM-407 -95H-409V-93H-407V-95ZM-411 -95H-413V-93H-411V-95ZM-415 -95H-417V-93H-415V-95ZM-419 -95H-421V-93H-419V-95ZM-423 -95H-425V-93H-423V-95ZM-427 -95H-429V-93H-427V-95ZM-431 -95H-433V-93H-431V-95ZM-435 -95H-437V-93H-435V-95ZM-439 -95H-441V-93H-439V-95ZM-443 -95H-445V-93H-443V-95ZM-447 -95H-449V-93H-447V-95ZM-451 -95H-453V-93H-451V-95ZM-455 -95H-457V-93H-455V-95ZM-459 -95H-461V-93H-459V-95ZM-463 -95H-465V-93H-463V-95ZM-467 -95H-469V-93H-467V-95ZM-471 -95H-473V-93H-471V-95ZM-475 -95H-477V-93H-475V-95ZM-479 -95H-481V-93H-479V-95ZM-483 -95H-485V-93H-483V-95ZM-487 -95H-489V-93H-487V-95ZM-491 -95H-493V-93H-491V-95ZM-495 -95H-497V-93H-495V-95ZM-499 -95H-501V-93H-499V-95ZM-503 -95H-505V-93H-503V-95ZM-507 -95H-509V-93H-507V-95ZM-511 -95H-513V-93H-511V-95ZM-515 -95H-517V-93H-515V-95ZM-519 -95H-521V-93H-519V-95ZM-523 -95H-525V-93H-523V-95ZM-527 -95H-529V-93H-527V-95ZM-531 -95H-533V-93H-531V-95ZM-535 -95H-537V-93H-535V-95ZM-539 -95H-541V-93H-539V-95ZM-543 -95H-545V-93H-543V-95ZM-547 -95H-549V-93H-547V-95ZM-551 -95H-553V-93H-551V-95ZM-555 -95H-557V-93H-555V-95ZM-559 -95H-561V-93H-559V-95ZM-563 -95H-565V-93H-563V-95ZM-567 -95H-569V-93H-567V-95ZM-571 -95H-573V-93H-571V-95ZM-575 -95H-577V-93H-575V-95ZM-579 -95H-581V-93H-579V-95ZM-583 -95H-585V-93H-583V-95ZM-587 -95H-589V-93H-587V-95ZM-591 -95H-593V-93H-591V-95ZM-595 -95H-597V-93H-595V-95ZM-599 -95H-601V-93H-599V-95ZM-603 -95H-605V-93H-603V-95ZM-607 -95H-609V-93H-607V-95ZM-611 -95H-613V-93H-611V-95ZM-615 -95H-617V-93H-615V-95ZM-619 -95H-621V-93H-619V-95ZM-623 -95H-625V-93H-623V-95ZM-627 -95H-629V-93H-627V-95ZM-631 -95H-633V-93H-631V-95ZM-635 -95H-637V-93H-635V-95ZM-639 -95H-641V-93H-639V-95ZM-643 -95H-645V-93H-643V-95ZM-647 -95H-649V-93H-647V-95ZM-651 -95H-653V-93H-651V-95ZM-655 -95H-657V-93H-655V-95ZM-659 -95H-661V-93H-659V-95ZM-663 -95H-665V-93H-663V-95ZM-667 -95H-669V-93H-667V-95ZM-671 -95H-673V-93H-671V-95ZM-675 -95H-677V-93H-675V-95ZM-679 -95H-681V-93H-679V-95ZM-683 -95H-685V-93H-683V-95ZM-687 -95H-689V-93H-687V-95ZM-691 -95H-693V-93H-691V-95ZM-695 -95H-696V-93H-695V-95Z" fill="#CFD1DB" mask="url(#path-3-inside-1_165_38016)"/>
</g>
</g>
</g>
</g>
</g>
</g>
<path d="M-10953 -3842H1406V-3844H-10953V-3842ZM1407 -3841V522H1409V-3841H1407ZM1406 523H-10953V525H1406V523ZM-10954 522V-3841H-10956V522H-10954ZM-10953 523C-10953.6 523 -10954 522.552 -10954 522H-10956C-10956 523.657 -10954.7 525 -10953 525V523ZM1407 522C1407 522.552 1406.55 523 1406 523V525C1407.66 525 1409 523.657 1409 522H1407ZM1406 -3842C1406.55 -3842 1407 -3841.55 1407 -3841H1409C1409 -3842.66 1407.66 -3844 1406 -3844V-3842ZM-10953 -3844C-10954.7 -3844 -10956 -3842.66 -10956 -3841H-10954C-10954 -3841.55 -10953.6 -3842 -10953 -3842V-3844Z" fill="#8B90A4"/>
</g>
<defs>
<clipPath id="clip0_165_38016">
<rect width="868" height="918" fill="white" transform="translate(-746 -514)"/>
</clipPath>
<clipPath id="clip1_165_38016">
<rect x="-696" y="-24" width="768" height="72" rx="4" fill="white"/>
</clipPath>
</defs>
</svg>
