<svg width="20" height="20" viewBox="0 0 20 20" fill="none" xmlns="http://www.w3.org/2000/svg">
<g id="Frame">
<path id="Vector" fill-rule="evenodd" clip-rule="evenodd" d="M16.4025 12.652C16.8848 12.397 17.2883 12.0153 17.5698 11.548C17.8513 11.0807 18.0001 10.5455 18.0001 10C18.0001 9.4545 17.8513 8.91931 17.5698 8.45202C17.2883 7.98473 16.8848 7.60304 16.4025 7.34802C16.5633 6.82672 16.5788 6.27145 16.4475 5.74197C16.3162 5.21249 16.043 4.72883 15.6573 4.34303C15.2716 3.95724 14.788 3.68392 14.2586 3.55247C13.7291 3.42102 13.1739 3.43642 12.6525 3.59702C12.3976 3.11453 12.0159 2.71071 11.5485 2.42905C11.0811 2.14738 10.5457 1.99854 10 1.99854C9.45433 1.99854 8.91896 2.14738 8.45157 2.42905C7.98418 2.71071 7.60247 3.11453 7.34753 3.59702C6.82623 3.43628 6.27096 3.42073 5.74148 3.55204C5.212 3.68335 4.72834 3.95654 4.34255 4.34223C3.95675 4.72792 3.68343 5.21151 3.55198 5.74096C3.42053 6.27041 3.43593 6.82567 3.59653 7.34702C3.11404 7.60196 2.71022 7.98367 2.42856 8.45106C2.14689 8.91845 1.99805 9.45382 1.99805 9.99952C1.99805 10.5452 2.14689 11.0806 2.42856 11.548C2.71022 12.0154 3.11404 12.3971 3.59653 12.652C3.43579 13.1733 3.42024 13.7286 3.55155 14.2581C3.68286 14.7876 3.95605 15.2712 4.34175 15.657C4.72744 16.0428 5.21102 16.3161 5.74047 16.4476C6.26992 16.579 6.82519 16.5636 7.34653 16.403C7.60147 16.8855 7.98318 17.2893 8.45057 17.571C8.91796 17.8527 9.45333 18.0015 9.99903 18.0015C10.5447 18.0015 11.0801 17.8527 11.5475 17.571C12.0149 17.2893 12.3966 16.8855 12.6515 16.403C13.1728 16.5638 13.7281 16.5793 14.2576 16.448C14.7871 16.3167 15.2707 16.0435 15.6565 15.6578C16.0423 15.2721 16.3156 14.7885 16.4471 14.2591C16.5785 13.7296 16.5631 13.1734 16.4025 12.652ZM13.8565 8.19202C13.9145 8.11231 13.9562 8.02196 13.9793 7.92612C14.0023 7.83029 14.0063 7.73086 13.9909 7.63349C13.9756 7.53613 13.9412 7.44275 13.8897 7.35868C13.8383 7.27461 13.7707 7.2015 13.691 7.14352C13.6113 7.08554 13.521 7.04383 13.4251 7.02077C13.3293 6.99771 13.2299 6.99375 13.1325 7.00912C13.0351 7.02449 12.9418 7.05888 12.8577 7.11034C12.7736 7.1618 12.7005 7.22931 12.6425 7.30902L9.15953 12.099L7.27953 10.219C7.21031 10.1474 7.12753 10.0903 7.03601 10.0511C6.94449 10.0118 6.84606 9.99116 6.74648 9.99034C6.64689 9.98952 6.54814 10.0085 6.45599 10.0463C6.36383 10.0841 6.28012 10.1398 6.20973 10.2102C6.13935 10.2807 6.0837 10.3644 6.04603 10.4566C6.00836 10.5488 5.98943 10.6476 5.99035 10.7472C5.99126 10.8468 6.01199 10.9452 6.05134 11.0367C6.09069 11.1281 6.14787 11.2109 6.21953 11.28L8.71953 13.78C8.79616 13.8567 8.88849 13.9158 8.99018 13.9534C9.09186 13.9909 9.20048 14.006 9.30854 13.9976C9.41661 13.9891 9.52156 13.9573 9.61616 13.9044C9.71076 13.8515 9.79277 13.7787 9.85653 13.691L13.8565 8.19102V8.19202Z" fill="#3C4363"/>
</g>
</svg>
