<svg width="62" height="70" viewBox="0 0 62 70" fill="none" xmlns="http://www.w3.org/2000/svg">
<g id="Group 8721">
<path id="Rectangle 737" d="M3 35V67H27" stroke="#2BB3A7" stroke-width="6"/>
<path id="Rectangle 741" d="M15 23V55H39" stroke="#2BB3A7" stroke-width="6"/>
<path id="Rectangle 742" d="M43 3V19H59" stroke="#2BB3A7" stroke-width="6"/>
<path id="Subtract" d="M27 3V0H24V3H27ZM43 3L45.1213 0.87868L44.2426 0H43V3ZM27 43H24V46H27V43ZM59 43V46H62V43H59ZM59 19H62V17.7574L61.1213 16.8787L59 19ZM27 6H43V0H27V6ZM30 43V3H24V43H30ZM59 40H27V46H59V40ZM56 19V43H62V19H56ZM40.8787 5.12132L56.8787 21.1213L61.1213 16.8787L45.1213 0.87868L40.8787 5.12132Z" fill="#2BB3A7"/>
</g>
</svg>
